<svg id="logo" fill="none" xmlns="http://www.w3.org/2000/svg" viewBox="0 0 309.32 309.32">
    <path class="paths"
        d="M250.48,108.1c-78.22,0-141.85,63.63-141.85,141.85s63.63,141.84,141.85,141.84S392.32,328.16,392.32,250,328.69,108.1,250.48,108.1Zm0,296c-85,0-154.16-69.16-154.16-154.16S165.47,95.79,250.48,95.79,404.63,165,404.63,250,335.47,404.11,250.48,404.11Z"
        transform="translate(-95.82 -95.29)" />
    <path class="paths"
        d="M304.4,290.85c-10.81,0-20.14-4-26.29-11.25a32.52,32.52,0,0,1-6.8-26.54,80.31,80.31,0,0,1,5.35-17.1l0-.1c3-7.36,5.75-14.32,5.75-26.08,0-7.78-2.31-33.16-32-33.16s-32,25.38-32,33.16c0,11.76,2.8,18.72,5.76,26.09l.1.26c2.06,5.08,4.18,10.33,5.28,16.92,1.66,9.82-.82,19.5-6.8,26.55-6.14,7.26-15.48,11.25-26.28,11.25-28.89,0-34.69-21.35-36.54-37.41l-.19-1.69c-.8-7.12-1.51-9.67-5.09-10.25V223.62c13.45.75,20.91,9.33,22.77,26.15l.18,1.61C179.29,266,182.54,273,196.48,273c5.57,0,10-1.7,12.7-4.93A14.73,14.73,0,0,0,212,256a61.66,61.66,0,0,0-4.29-13.4c-3.17-7.84-7.1-17.58-7.1-32.83,0-25.38,15.41-51,49.85-51,14.5,0,26.78,4.63,35.51,13.39,9.1,9.14,14.3,22.84,14.24,37.6,0,15.25-3.93,25-7.09,32.82L293,243c-1.8,4.51-3.36,8.41-4.13,13a14.64,14.64,0,0,0,2.83,12.07c2.74,3.23,7.13,4.93,12.7,4.93,13.94,0,17.19-7,18.87-21.64l.18-1.6c1.86-16.83,9.31-25.41,22.76-26.16V241.5c-3.54.58-4.26,3.14-5.06,10.25l-.18,1.66C339.91,262.67,336.76,290.85,304.4,290.85Z"
        transform="translate(-95.82 -95.29)" />
    <path class="paths"
        d="M304.43,333.85c-20.88,0-39.51-8.1-52.46-22.81l-1.5-1.71L249,311c-13,14.71-31.6,22.81-52.49,22.81-10.62,0-30.56-2.15-47-16.29l9.8-10.65c12.82,10.81,28.67,12.46,37.18,12.46,17.11,0,32.13-6.63,42.29-18.67a52.28,52.28,0,0,0,5.4-7.72l2.72-4.8H254l2.72,4.79a50.35,50.35,0,0,0,5.37,7.72c10.2,12.05,25.22,18.68,42.3,18.68,8.61,0,24.66-1.7,37.57-12.82l9.92,10.56C335.44,331.64,315.21,333.85,304.43,333.85Z"
        transform="translate(-95.82 -95.29)" />
    <rect class="paths" x="140.61" y="126.21" width="10.27" height="17.82" rx="1" />
    <rect class="paths" x="158.46" y="126.21" width="10.27" height="17.82" rx="1" />
</svg>